<?xml version="1.0" standalone="no"?>
<!DOCTYPE svg PUBLIC "-//W3C//DTD SVG 20010904//EN"
 "http://www.w3.org/TR/2001/REC-SVG-20010904/DTD/svg10.dtd">
<svg version="1.0" xmlns="http://www.w3.org/2000/svg"
 width="128.000000pt" height="128.000000pt" viewBox="0 0 128.000000 128.000000"
 preserveAspectRatio="xMidYMid meet">
<metadata>
Created by potrace 1.11, written by Peter Selinger 2001-2013
</metadata>
<g transform="translate(0.000000,128.000000) scale(0.100000,-0.100000)"
fill="#000000" stroke="none">
<path d="M617 1264 c-108 -20 -308 -87 -383 -129 -94 -53 -166 -123 -200 -197
-27 -59 -29 -71 -28 -178 1 -89 6 -137 27 -216 74 -285 167 -439 304 -505 57
-27 78 -32 162 -34 110 -4 224 17 366 66 337 116 447 266 406 549 -13 83 -60
256 -88 320 -76 174 -137 251 -238 301 -56 27 -76 32 -157 34 -51 2 -128 -3
-171 -11z m110 -229 c12 -8 29 -38 38 -66 11 -33 22 -49 30 -45 92 35 139 29
151 -19 11 -43 -10 -72 -66 -92 -27 -10 -50 -23 -50 -28 0 -6 11 -42 24 -81
25 -75 24 -74 100 -53 47 14 48 13 72 -14 43 -50 28 -86 -51 -116 -27 -11 -49
-25 -47 -31 1 -6 8 -31 14 -55 15 -54 1 -91 -37 -101 -43 -11 -73 13 -92 73
-9 30 -22 52 -27 50 -6 -3 -44 -15 -83 -28 -40 -12 -73 -28 -73 -35 0 -6 7
-31 15 -54 18 -52 5 -89 -37 -104 -39 -14 -73 12 -93 74 -9 27 -18 50 -20 50
-1 0 -22 -7 -45 -15 -23 -8 -51 -15 -61 -15 -28 0 -59 36 -59 68 0 36 22 56
78 73 23 7 42 17 42 24 0 6 -11 42 -24 81 -25 75 -24 74 -98 53 -45 -12 -49
-12 -73 11 -26 25 -31 50 -15 79 9 17 25 26 92 50 27 10 27 10 13 52 -21 60
-19 95 7 113 50 35 96 8 118 -68 7 -26 18 -45 24 -43 6 2 44 15 84 28 39 12
72 28 72 35 0 6 -6 29 -14 50 -17 49 -13 74 15 96 26 22 48 23 76 3z"/>
<path d="M610 723 c-41 -14 -77 -27 -79 -29 -8 -7 52 -165 63 -161 6 2 43 14
81 27 39 12 72 24 74 26 5 5 -50 164 -57 163 -4 0 -41 -12 -82 -26z"/>
</g>
</svg>
